REM DIRINDEX 1\2,1\3,1\4
REM DIRNAME folder01,folder02,folder03,folder04
TITLE ""
FILE "Track2.mp3" MP3
  TRACK 01 AUDIO
    TITLE "0:"
    INDEX 01 00:00:00
  TRACK 02 AUDIO
    TITLE "4:cjc090_0407"
    INDEX 01 00:00:23
  TRACK 03 AUDIO
    TITLE "0:"
    INDEX 01 00:06:30
  TRACK 04 AUDIO
    TITLE "3:cjc090_0408"
    INDEX 01 00:07:29
  TRACK 05 AUDIO
    TITLE "2:cjc090_0409"
    INDEX 01 00:08:42
  TRACK 06 AUDIO
    TITLE "0:"
    INDEX 01 00:09:59
  TRACK 07 AUDIO
    TITLE "3:cjc090_0410"
    INDEX 01 00:10:04
  TRACK 08 AUDIO
    TITLE "2:cjc090_0411"
    INDEX 01 00:11:11
  TRACK 09 AUDIO
    TITLE "0:"
    INDEX 01 00:12:32
  TRACK 10 AUDIO
    TITLE "3:cjc090_0412"
    INDEX 01 00:12:52
  TRACK 11 AUDIO
    TITLE "2:cjc090_0413"
    INDEX 01 00:13:65
  TRACK 12 AUDIO
    TITLE "0:"
    INDEX 01 00:15:03
  TRACK 13 AUDIO
    TITLE "3:cjc090_0414"
    INDEX 01 00:15:23
  TRACK 14 AUDIO
    TITLE "2:cjc090_0415"
    INDEX 01 00:16:32
  TRACK 15 AUDIO
    TITLE "0:"
    INDEX 01 00:17:61
  TRACK 16 AUDIO
    TITLE "3:cjc090_0416"
    INDEX 01 00:18:05
  TRACK 17 AUDIO
    TITLE "2:cjc090_0417"
    INDEX 01 00:20:22
  TRACK 18 AUDIO
    TITLE "0:"
    INDEX 01 00:22:15
  TRACK 19 AUDIO
    TITLE "3:cjc090_0418"
    INDEX 01 00:22:34
  TRACK 20 AUDIO
    TITLE "2:cjc090_0419"
    INDEX 01 00:23:51
  TRACK 21 AUDIO
    TITLE "0:"
    INDEX 01 00:25:39
  TRACK 22 AUDIO
    TITLE "3:cjc090_0420"
    INDEX 01 00:25:60
  TRACK 23 AUDIO
    TITLE "2:cjc090_0421"
    INDEX 01 00:27:16
  TRACK 24 AUDIO
    TITLE "0:"
    INDEX 01 00:28:25
  TRACK 25 AUDIO
    TITLE "3:cjc090_0422"
    INDEX 01 00:28:45
  TRACK 26 AUDIO
    TITLE "2:cjc090_0423"
    INDEX 01 00:29:48
  TRACK 27 AUDIO
    TITLE "0:"
    INDEX 01 00:31:35
  TRACK 28 AUDIO
    TITLE "3:cjc090_0424"
    INDEX 01 00:31:55
  TRACK 29 AUDIO
    TITLE "2:cjc090_0425"
    INDEX 01 00:32:58
  TRACK 30 AUDIO
    TITLE "0:"
    INDEX 01 00:33:69
  TRACK 31 AUDIO
    TITLE "3:cjc090_0426"
    INDEX 01 00:34:16
  TRACK 32 AUDIO
    TITLE "2:cjc090_0427"
    INDEX 01 00:35:35
  TRACK 33 AUDIO
    TITLE "0:"
    INDEX 01 00:36:48
  TRACK 34 AUDIO
    TITLE "3:cjc090_0428"
    INDEX 01 00:36:68
  TRACK 35 AUDIO
    TITLE "2:cjc090_0429"
    INDEX 01 00:38:22
  TRACK 36 AUDIO
    TITLE "0:"
    INDEX 01 00:39:37
  TRACK 37 AUDIO
    TITLE "3:cjc090_0430"
    INDEX 01 00:39:58
  TRACK 38 AUDIO
    TITLE "2:cjc090_0431"
    INDEX 01 00:40:73
  TRACK 39 AUDIO
    TITLE "0:"
    INDEX 01 00:42:06
  TRACK 40 AUDIO
    TITLE "3:cjc090_0432"
    INDEX 01 00:42:25
  TRACK 41 AUDIO
    TITLE "2:cjc090_0433"
    INDEX 01 00:43:46
  TRACK 42 AUDIO
    TITLE "0:"
    INDEX 01 00:46:72
  TRACK 43 AUDIO
    TITLE "3:cjc090_0434"
    INDEX 01 00:47:19
  TRACK 44 AUDIO
    TITLE "2:cjc090_0435"
    INDEX 01 00:49:23
  TRACK 45 AUDIO
    TITLE "0:"
    INDEX 01 00:51:18
  TRACK 46 AUDIO
    TITLE "3:cjc090_0436"
    INDEX 01 00:51:38
  TRACK 47 AUDIO
    TITLE "2:cjc090_0437"
    INDEX 01 00:52:69
  TRACK 48 AUDIO
    TITLE "0:"
    INDEX 01 00:54:66
  TRACK 49 AUDIO
    TITLE "3:cjc090_0438"
    INDEX 01 00:55:10
  TRACK 50 AUDIO
    TITLE "2:cjc090_0439"
    INDEX 01 00:56:25
  TRACK 51 AUDIO
    TITLE "0:"
    INDEX 01 00:58:05
  TRACK 52 AUDIO
    TITLE "3:cjc090_0440"
    INDEX 01 00:58:24
  TRACK 53 AUDIO
    TITLE "2:cjc090_0441"
    INDEX 01 00:59:41
  TRACK 54 AUDIO
    TITLE "0:"
    INDEX 01 01:00:60
  TRACK 55 AUDIO
    TITLE "3:cjc090_0442"
    INDEX 01 01:01:05
  TRACK 56 AUDIO
    TITLE "2:cjc090_0443"
    INDEX 01 01:02:26
  TRACK 57 AUDIO
    TITLE "0:"
    INDEX 01 01:04:52
  TRACK 58 AUDIO
    TITLE "3:cjc090_0444"
    INDEX 01 01:05:01
  TRACK 59 AUDIO
    TITLE "2:cjc090_0445"
    INDEX 01 01:06:24
  TRACK 60 AUDIO
    TITLE "0:"
    INDEX 01 01:07:66
  TRACK 61 AUDIO
    TITLE "3:cjc090_0446"
    INDEX 01 01:08:11
  TRACK 62 AUDIO
    TITLE "2:cjc090_0447"
    INDEX 01 01:09:36
  TRACK 63 AUDIO
    TITLE "0:"
    INDEX 01 01:11:27
  TRACK 64 AUDIO
    TITLE "3:cjc090_0448"
    INDEX 01 01:11:47
  TRACK 65 AUDIO
    TITLE "2:cjc090_0449"
    INDEX 01 01:12:60
  TRACK 66 AUDIO
    TITLE "0:"
    INDEX 01 01:14:00
  TRACK 67 AUDIO
    TITLE "3:cjc090_0450"
    INDEX 01 01:14:19
  TRACK 68 AUDIO
    TITLE "2:cjc090_0451"
    INDEX 01 01:15:40
  TRACK 69 AUDIO
    TITLE "0:"
    INDEX 01 01:16:52
  TRACK 70 AUDIO
    TITLE "3:cjc090_0452"
    INDEX 01 01:16:73
  TRACK 71 AUDIO
    TITLE "2:cjc090_0453"
    INDEX 01 01:18:11
  TRACK 72 AUDIO
    TITLE "0:"
    INDEX 01 01:19:25
  TRACK 73 AUDIO
    TITLE "3:cjc090_0454"
    INDEX 01 01:19:46
  TRACK 74 AUDIO
    TITLE "2:cjc090_0455"
    INDEX 01 01:20:65
  TRACK 75 AUDIO
    TITLE "0:"
    INDEX 01 01:22:41
  TRACK 76 AUDIO
    TITLE "3:cjc090_0456"
    INDEX 01 01:22:60
  TRACK 77 AUDIO
    TITLE "2:cjc090_0457"
    INDEX 01 01:23:65
  TRACK 78 AUDIO
    TITLE "0:"
    INDEX 01 01:25:66
  TRACK 79 AUDIO
    TITLE "3:cjc090_0458"
    INDEX 01 01:26:13
  TRACK 80 AUDIO
    TITLE "2:cjc090_0459"
    INDEX 01 01:27:26
  TRACK 81 AUDIO
    TITLE "0:"
    INDEX 01 01:29:66
  TRACK 82 AUDIO
    TITLE "3:cjc090_0460"
    INDEX 01 01:30:11
  TRACK 83 AUDIO
    TITLE "2:cjc090_0461"
    INDEX 01 01:31:28
  TRACK 84 AUDIO
    TITLE "0:"
    INDEX 01 01:33:21
  TRACK 85 AUDIO
    TITLE "3:cjc090_0462"
    INDEX 01 01:33:40
  TRACK 86 AUDIO
    TITLE "2:cjc090_0463"
    INDEX 01 01:34:52
  TRACK 87 AUDIO
    TITLE "0:"
    INDEX 01 01:35:55
  TRACK 88 AUDIO
    TITLE "3:cjc090_0464"
    INDEX 01 01:36:00
  TRACK 89 AUDIO
    TITLE "2:cjc090_0465"
    INDEX 01 01:37:17
  TRACK 90 AUDIO
    TITLE "0:"
    INDEX 01 01:40:50
  TRACK 91 AUDIO
    TITLE "3:cjc090_0466"
    INDEX 01 01:40:70
  TRACK 92 AUDIO
    TITLE "2:cjc090_0467"
    INDEX 01 01:42:18
  TRACK 93 AUDIO
    TITLE "0:"
    INDEX 01 01:43:64
  TRACK 94 AUDIO
    TITLE "3:cjc090_0468"
    INDEX 01 01:44:09
  TRACK 95 AUDIO
    TITLE "2:cjc090_0469"
    INDEX 01 01:45:22
  TRACK 96 AUDIO
    TITLE "0:"
    INDEX 01 01:46:45
  TRACK 97 AUDIO
    TITLE "3:cjc090_0470"
    INDEX 01 01:46:65
  TRACK 98 AUDIO
    TITLE "2:cjc090_0471"
    INDEX 01 01:48:22
  TRACK 99 AUDIO
    TITLE "0:"
    INDEX 01 01:50:41
  TRACK 100 AUDIO
    TITLE "3:cjc090_0472"
    INDEX 01 01:50:62
  TRACK 101 AUDIO
    TITLE "2:cjc090_0473"
    INDEX 01 01:52:00
  TRACK 102 AUDIO
    TITLE "0:"
    INDEX 01 01:53:21
  TRACK 103 AUDIO
    TITLE "3:cjc090_0474"
    INDEX 01 01:53:41
  TRACK 104 AUDIO
    TITLE "2:cjc090_0475"
    INDEX 01 01:55:07
  TRACK 105 AUDIO
    TITLE "0:"
    INDEX 01 01:57:15
  TRACK 106 AUDIO
    TITLE "3:cjc090_0476"
    INDEX 01 01:57:35
  TRACK 107 AUDIO
    TITLE "2:cjc090_0477"
    INDEX 01 01:58:50
  TRACK 108 AUDIO
    TITLE "0:"
    INDEX 01 02:00:06
  TRACK 109 AUDIO
    TITLE "3:cjc090_0478"
    INDEX 01 02:00:27
  TRACK 110 AUDIO
    TITLE "2:cjc090_0479"
    INDEX 01 02:01:33
  TRACK 111 AUDIO
    TITLE "0:"
    INDEX 01 02:02:44
  TRACK 112 AUDIO
    TITLE "3:cjc090_0480"
    INDEX 01 02:02:66
  TRACK 113 AUDIO
    TITLE "2:cjc090_0481"
    INDEX 01 02:04:02
  TRACK 114 AUDIO
    TITLE "0:"
    INDEX 01 02:05:15
  TRACK 115 AUDIO
    TITLE "3:cjc090_0482"
    INDEX 01 02:05:34
  TRACK 116 AUDIO
    TITLE "2:cjc090_0483"
    INDEX 01 02:06:48
  TRACK 117 AUDIO
    TITLE "0:"
    INDEX 01 02:07:69
  TRACK 118 AUDIO
    TITLE "3:cjc090_0484"
    INDEX 01 02:08:13
  TRACK 119 AUDIO
    TITLE "2:cjc090_0485"
    INDEX 01 02:09:22
  TRACK 120 AUDIO
    TITLE "0:"
    INDEX 01 02:11:25
  TRACK 121 AUDIO
    TITLE "3:cjc090_0486"
    INDEX 01 02:11:47
  TRACK 122 AUDIO
    TITLE "2:cjc090_0487"
    INDEX 01 02:12:56
  TRACK 123 AUDIO
    TITLE "0:"
    INDEX 01 02:13:65
  TRACK 124 AUDIO
    TITLE "3:cjc090_0488"
    INDEX 01 02:14:12
  TRACK 125 AUDIO
    TITLE "2:cjc090_0489"
    INDEX 01 02:15:62
  TRACK 126 AUDIO
    TITLE "0:"
    INDEX 01 02:16:70
  TRACK 127 AUDIO
    TITLE "3:cjc090_0490"
    INDEX 01 02:17:14
  TRACK 128 AUDIO
    TITLE "2:cjc090_0491"
    INDEX 01 02:18:29
  TRACK 129 AUDIO
    TITLE "0:"
    INDEX 01 02:20:44
  TRACK 130 AUDIO
    TITLE "3:cjc090_0492"
    INDEX 01 02:20:63
  TRACK 131 AUDIO
    TITLE "2:cjc090_0493"
    INDEX 01 02:22:11
  TRACK 132 AUDIO
    TITLE "0:"
    INDEX 01 02:25:65
  TRACK 133 AUDIO
    TITLE "3:cjc090_0494"
    INDEX 01 02:26:11
  TRACK 134 AUDIO
    TITLE "2:cjc090_0495"
    INDEX 01 02:27:14
  TRACK 135 AUDIO
    TITLE "0:"
    INDEX 01 02:28:43
  TRACK 136 AUDIO
    TITLE "3:cjc090_0496"
    INDEX 01 02:28:65
  TRACK 137 AUDIO
    TITLE "2:cjc090_0497"
    INDEX 01 02:30:11
  TRACK 138 AUDIO
    TITLE "0:"
    INDEX 01 02:31:22
  TRACK 139 AUDIO
    TITLE "3:cjc090_0498"
    INDEX 01 02:31:42
  TRACK 140 AUDIO
    TITLE "2:cjc090_0499"
    INDEX 01 02:32:55
  TRACK 141 AUDIO
    TITLE "0:"
    INDEX 01 02:34:54
  TRACK 142 AUDIO
    TITLE "3:cjc090_0500"
    INDEX 01 02:34:73
  TRACK 143 AUDIO
    TITLE "2:cjc090_0501"
    INDEX 01 02:36:12
  TRACK 144 AUDIO
    TITLE "0:"
    INDEX 01 02:38:18
  TRACK 145 AUDIO
    TITLE "3:cjc090_0502"
    INDEX 01 02:38:40
  TRACK 146 AUDIO
    TITLE "2:cjc090_0503"
    INDEX 01 02:39:67
  TRACK 147 AUDIO
    TITLE "0:"
    INDEX 01 02:40:72
  TRACK 148 AUDIO
    TITLE "3:cjc090_0504"
    INDEX 01 02:41:17
  TRACK 149 AUDIO
    TITLE "2:cjc090_0505"
    INDEX 01 02:42:22
  TRACK 150 AUDIO
    TITLE "0:"
    INDEX 01 02:44:07
  TRACK 151 AUDIO
    TITLE "3:cjc090_0506"
    INDEX 01 02:44:27
  TRACK 152 AUDIO
    TITLE "2:cjc090_0507"
    INDEX 01 02:45:44
  TRACK 153 AUDIO
    TITLE "0:"
    INDEX 01 02:47:47
  TRACK 154 AUDIO
    TITLE "3:cjc090_0508"
    INDEX 01 02:47:66
  TRACK 155 AUDIO
    TITLE "2:cjc090_0509"
    INDEX 01 02:49:30
  TRACK 156 AUDIO
    TITLE "0:"
    INDEX 01 02:51:09
  TRACK 157 AUDIO
    TITLE "3:cjc090_0510"
    INDEX 01 02:51:31
  TRACK 158 AUDIO
    TITLE "2:cjc090_0511"
    INDEX 01 02:52:32
  TRACK 159 AUDIO
    TITLE "0:"
    INDEX 01 02:53:24
  TRACK 160 AUDIO
    TITLE "3:cjc090_0512"
    INDEX 01 02:53:43
  TRACK 161 AUDIO
    TITLE "2:cjc090_0513"
    INDEX 01 02:54:66
  TRACK 162 AUDIO
    TITLE "0:"
    INDEX 01 02:55:70
  TRACK 163 AUDIO
    TITLE "3:cjc090_0514"
    INDEX 01 02:56:14
  TRACK 164 AUDIO
    TITLE "2:cjc090_0515"
    INDEX 01 02:57:23
  TRACK 165 AUDIO
    TITLE "0:"
    INDEX 01 02:59:22
  TRACK 166 AUDIO
    TITLE "3:cjc090_0516"
    INDEX 01 02:59:42
  TRACK 167 AUDIO
    TITLE "2:cjc090_0517"
    INDEX 01 03:00:55
  TRACK 168 AUDIO
    TITLE "0:"
    INDEX 01 03:03:08
  TRACK 169 AUDIO
    TITLE "3:cjc090_0518"
    INDEX 01 03:03:30
  TRACK 170 AUDIO
    TITLE "2:cjc090_0519"
    INDEX 01 03:04:47
  TRACK 171 AUDIO
    TITLE "0:"
    INDEX 01 03:05:60
  TRACK 172 AUDIO
    TITLE "3:cjc090_0520"
    INDEX 01 03:06:05
  TRACK 173 AUDIO
    TITLE "2:cjc090_0521"
    INDEX 01 03:07:08
  TRACK 174 AUDIO
    TITLE "0:"
    INDEX 01 03:08:19
  TRACK 175 AUDIO
    TITLE "3:cjc090_0522"
    INDEX 01 03:08:39
  TRACK 176 AUDIO
    TITLE "2:cjc090_0523"
    INDEX 01 03:10:59
  TRACK 177 AUDIO
    TITLE "0:"
    INDEX 01 03:12:41
  TRACK 178 AUDIO
    TITLE "3:cjc090_0524"
    INDEX 01 03:12:62
  TRACK 179 AUDIO
    TITLE "2:cjc090_0525"
    INDEX 01 03:14:04
  TRACK 180 AUDIO
    TITLE "0:"
    INDEX 01 03:15:68
  TRACK 181 AUDIO
    TITLE "3:cjc090_0526"
    INDEX 01 03:16:13
  TRACK 182 AUDIO
    TITLE "2:cjc090_0527"
    INDEX 01 03:18:28
  TRACK 183 AUDIO
    TITLE "0:"
    INDEX 01 03:20:64
  TRACK 184 AUDIO
    TITLE "3:cjc090_0528"
    INDEX 01 03:21:08
  TRACK 185 AUDIO
    TITLE "2:cjc090_0529"
    INDEX 01 03:22:31
  TRACK 186 AUDIO
    TITLE "0:"
    INDEX 01 03:23:54
  TRACK 187 AUDIO
    TITLE "3:cjc090_0530"
    INDEX 01 03:24:01
  TRACK 188 AUDIO
    TITLE "2:cjc090_0531"
    INDEX 01 03:24:73
  TRACK 189 AUDIO
    TITLE "0:"
    INDEX 01 03:27:17
  TRACK 190 AUDIO
    TITLE "3:cjc090_0532"
    INDEX 01 03:27:36
  TRACK 191 AUDIO
    TITLE "2:cjc090_0533"
    INDEX 01 03:29:47
  TRACK 192 AUDIO
    TITLE "0:"
    INDEX 01 03:31:30
  TRACK 193 AUDIO
    TITLE "3:cjc090_0534"
    INDEX 01 03:31:52
  TRACK 194 AUDIO
    TITLE "2:cjc090_0535"
    INDEX 01 03:32:63
  TRACK 195 AUDIO
    TITLE "0:"
    INDEX 01 03:35:30
  TRACK 196 AUDIO
    TITLE "3:cjc090_0536"
    INDEX 01 03:35:51
  TRACK 197 AUDIO
    TITLE "2:cjc090_0537"
    INDEX 01 03:36:57
  TRACK 198 AUDIO
    TITLE "0:"
    INDEX 01 03:38:05
  TRACK 199 AUDIO
    TITLE "3:cjc090_0538"
    INDEX 01 03:38:24
  TRACK 200 AUDIO
    TITLE "2:cjc090_0539"
    INDEX 01 03:39:28
  TRACK 201 AUDIO
    TITLE "0:"
    INDEX 01 03:40:29
  TRACK 202 AUDIO
    TITLE "3:cjc090_0540"
    INDEX 01 03:40:49
  TRACK 203 AUDIO
    TITLE "2:cjc090_0541"
    INDEX 01 03:41:56
  TRACK 204 AUDIO
    TITLE "0:"
    INDEX 01 03:43:12
  TRACK 205 AUDIO
    TITLE "3:cjc090_0542"
    INDEX 01 03:43:31
  TRACK 206 AUDIO
    TITLE "2:cjc090_0543"
    INDEX 01 03:44:35
  TRACK 207 AUDIO
    TITLE "0:"
    INDEX 01 03:45:73
  TRACK 208 AUDIO
    TITLE "3:cjc090_0544"
    INDEX 01 03:46:18
  TRACK 209 AUDIO
    TITLE "2:cjc090_0545"
    INDEX 01 03:47:35
  TRACK 210 AUDIO
    TITLE "0:"
    INDEX 01 03:48:46
  TRACK 211 AUDIO
    TITLE "3:cjc090_0546"
    INDEX 01 03:48:66
  TRACK 212 AUDIO
    TITLE "2:cjc090_0547"
    INDEX 01 03:49:73
  TRACK 213 AUDIO
    TITLE "0:"
    INDEX 01 03:52:19
  TRACK 214 AUDIO
    TITLE "3:cjc090_0548"
    INDEX 01 03:52:38
  TRACK 215 AUDIO
    TITLE "2:cjc090_0549"
    INDEX 01 03:53:55
  TRACK 216 AUDIO
    TITLE "0:"
    INDEX 01 03:56:65
  TRACK 217 AUDIO
    TITLE "3:cjc090_0550"
    INDEX 01 03:57:12
  TRACK 218 AUDIO
    TITLE "2:cjc090_0551"
    INDEX 01 03:58:19
  TRACK 219 AUDIO
    TITLE "0:"
    INDEX 01 03:59:21
  TRACK 220 AUDIO
    TITLE "3:cjc090_0552"
    INDEX 01 03:59:42
  TRACK 221 AUDIO
    TITLE "2:cjc090_0553"
    INDEX 01 04:00:53
  TRACK 222 AUDIO
    TITLE "0:"
    INDEX 01 04:03:60
  TRACK 223 AUDIO
    TITLE "3:cjc090_0554"
    INDEX 01 04:04:06
  TRACK 224 AUDIO
    TITLE "2:cjc090_0555"
    INDEX 01 04:05:15
  TRACK 225 AUDIO
    TITLE "0:"
    INDEX 01 04:06:52
  TRACK 226 AUDIO
    TITLE "3:cjc090_0556"
    INDEX 01 04:06:70
  TRACK 227 AUDIO
    TITLE "2:cjc090_0557"
    INDEX 01 04:08:67
  TRACK 228 AUDIO
    TITLE "0:"
    INDEX 01 04:10:71
  TRACK 229 AUDIO
    TITLE "3:cjc090_0558"
    INDEX 01 04:11:14
  TRACK 230 AUDIO
    TITLE "2:cjc090_0559"
    INDEX 01 04:12:49
  TRACK 231 AUDIO
    TITLE "0:"
    INDEX 01 04:13:60
  TRACK 232 AUDIO
    TITLE "3:cjc090_0560"
    INDEX 01 04:14:05
  TRACK 233 AUDIO
    TITLE "2:cjc090_0561"
    INDEX 01 04:15:20
  TRACK 234 AUDIO
    TITLE "0:"
    INDEX 01 04:17:28
  TRACK 235 AUDIO
    TITLE "3:cjc090_0562"
    INDEX 01 04:17:50
  TRACK 236 AUDIO
    TITLE "2:cjc090_0563"
    INDEX 01 04:18:59
  TRACK 237 AUDIO
    TITLE "0:"
    INDEX 01 04:19:59
  TRACK 238 AUDIO
    TITLE "3:cjc090_0564"
    INDEX 01 04:20:05
  TRACK 239 AUDIO
    TITLE "2:cjc090_0565"
    INDEX 01 04:21:20
  TRACK 240 AUDIO
    TITLE "0:"
    INDEX 01 04:22:10
  TRACK 241 AUDIO
    TITLE "3:cjc090_0566"
    INDEX 01 04:22:31
  TRACK 242 AUDIO
    TITLE "2:cjc090_0567"
    INDEX 01 04:23:47
  TRACK 243 AUDIO
    TITLE "0:"
    INDEX 01 04:24:50
  TRACK 244 AUDIO
    TITLE "3:cjc090_0568"
    INDEX 01 04:24:70
  TRACK 245 AUDIO
    TITLE "2:cjc090_0569"
    INDEX 01 04:26:06
  TRACK 246 AUDIO
    TITLE "0:"
    INDEX 01 04:28:01
  TRACK 247 AUDIO
    TITLE "3:cjc090_0570"
    INDEX 01 04:28:20
  TRACK 248 AUDIO
    TITLE "2:cjc090_0571"
    INDEX 01 04:29:26
  TRACK 249 AUDIO
    TITLE "0:"
    INDEX 01 04:30:45
  TRACK 250 AUDIO
    TITLE "3:cjc090_0572"
    INDEX 01 04:30:64
  TRACK 251 AUDIO
    TITLE "2:cjc090_0573"
    INDEX 01 04:32:30
  TRACK 252 AUDIO
    TITLE "0:"
    INDEX 01 04:33:39
  TRACK 253 AUDIO
    TITLE "3:cjc090_0574"
    INDEX 01 04:33:59
  TRACK 254 AUDIO
    TITLE "2:cjc090_0575"
    INDEX 01 04:34:72
  TRACK 255 AUDIO
    TITLE "0:"
    INDEX 01 04:37:09
  TRACK 256 AUDIO
    TITLE "3:cjc090_0576"
    INDEX 01 04:37:27
  TRACK 257 AUDIO
    TITLE "2:cjc090_0577"
    INDEX 01 04:38:40
  TRACK 258 AUDIO
    TITLE "0:"
    INDEX 01 04:40:08
  TRACK 259 AUDIO
    TITLE "3:cjc090_0578"
    INDEX 01 04:40:29
  TRACK 260 AUDIO
    TITLE "2:cjc090_0579"
    INDEX 01 04:41:46
  TRACK 261 AUDIO
    TITLE "0:"
    INDEX 01 04:42:71
  TRACK 262 AUDIO
    TITLE "3:cjc090_0580"
    INDEX 01 04:43:18
  TRACK 263 AUDIO
    TITLE "2:cjc090_0581"
    INDEX 01 04:44:37
  TRACK 264 AUDIO
    TITLE "0:"
    INDEX 01 04:46:48
  TRACK 265 AUDIO
    TITLE "3:cjc090_0582"
    INDEX 01 04:46:67
  TRACK 266 AUDIO
    TITLE "2:cjc090_0583"
    INDEX 01 04:48:09
  TRACK 267 AUDIO
    TITLE "0:"
    INDEX 01 04:49:13
  TRACK 268 AUDIO
    TITLE "3:cjc090_0584"
    INDEX 01 04:49:32
  TRACK 269 AUDIO
    TITLE "2:cjc090_0585"
    INDEX 01 04:50:57
  TRACK 270 AUDIO
    TITLE "0:"
    INDEX 01 04:51:68
  TRACK 271 AUDIO
    TITLE "3:cjc090_0586"
    INDEX 01 04:52:13
  TRACK 272 AUDIO
    TITLE "2:cjc090_0587"
    INDEX 01 04:53:26
  TRACK 273 AUDIO
    TITLE "0:"
    INDEX 01 04:54:37
  TRACK 274 AUDIO
    TITLE "3:cjc090_0588"
    INDEX 01 04:54:57
  TRACK 275 AUDIO
    TITLE "2:cjc090_0589"
    INDEX 01 04:55:58
  TRACK 276 AUDIO
    TITLE "0:"
    INDEX 01 04:56:56
  TRACK 277 AUDIO
    TITLE "3:cjc090_0590"
    INDEX 01 04:57:00
  TRACK 278 AUDIO
    TITLE "2:cjc090_0591"
    INDEX 01 04:58:23
  TRACK 279 AUDIO
    TITLE "0:"
    INDEX 01 04:59:64
  TRACK 280 AUDIO
    TITLE "3:cjc090_0592"
    INDEX 01 05:00:11
  TRACK 281 AUDIO
    TITLE "2:cjc090_0593"
    INDEX 01 05:01:28
  TRACK 282 AUDIO
    TITLE "0:"
    INDEX 01 05:02:39
  TRACK 283 AUDIO
    TITLE "3:cjc090_0594"
    INDEX 01 05:02:58
  TRACK 284 AUDIO
    TITLE "2:cjc090_0595"
    INDEX 01 05:03:60
  TRACK 285 AUDIO
    TITLE "0:"
    INDEX 01 05:04:61
  TRACK 286 AUDIO
    TITLE "3:cjc090_0596"
    INDEX 01 05:05:06
  TRACK 287 AUDIO
    TITLE "2:cjc090_0597"
    INDEX 01 05:06:09
  TRACK 288 AUDIO
    TITLE "0:"
    INDEX 01 05:07:22
  TRACK 289 AUDIO
    TITLE "3:cjc090_0598"
    INDEX 01 05:07:42
  TRACK 290 AUDIO
    TITLE "2:cjc090_0599"
    INDEX 01 05:08:57
  TRACK 291 AUDIO
    TITLE "0:"
    INDEX 01 05:12:65
  TRACK 292 AUDIO
    TITLE "3:cjc090_0600"
    INDEX 01 05:13:09
  TRACK 293 AUDIO
    TITLE "2:cjc090_0601"
    INDEX 01 05:14:26
  TRACK 294 AUDIO
    TITLE "0:"
    INDEX 01 05:16:15
  TRACK 295 AUDIO
    TITLE "3:cjc090_0602"
    INDEX 01 05:16:35
  TRACK 296 AUDIO
    TITLE "2:cjc090_0603"
    INDEX 01 05:17:64
  TRACK 297 AUDIO
    TITLE "0:"
    INDEX 01 05:19:00
  TRACK 298 AUDIO
    TITLE "3:cjc090_0604"
    INDEX 01 05:19:22
  TRACK 299 AUDIO
    TITLE "2:cjc090_0605"
    INDEX 01 05:20:27
  TRACK 300 AUDIO
    TITLE "0:"
    INDEX 01 05:21:42
  TRACK 301 AUDIO
    TITLE "3:cjc090_0606"
    INDEX 01 05:21:64
  TRACK 302 AUDIO
    TITLE "2:cjc090_0607"
    INDEX 01 05:22:73
  TRACK 303 AUDIO
    TITLE "0:"
    INDEX 01 05:24:70
  TRACK 304 AUDIO
    TITLE "3:cjc090_0608"
    INDEX 01 05:25:16
  TRACK 305 AUDIO
    TITLE "2:cjc090_0609"
    INDEX 01 05:26:37
  TRACK 306 AUDIO
    TITLE "0:"
    INDEX 01 05:27:58
  TRACK 307 AUDIO
    TITLE "3:cjc090_0610"
    INDEX 01 05:28:03
  TRACK 308 AUDIO
    TITLE "2:cjc090_0611"
    INDEX 01 05:29:16
  TRACK 309 AUDIO
    TITLE "0:"
    INDEX 01 05:31:07
  TRACK 310 AUDIO
    TITLE "3:cjc090_0612"
    INDEX 01 05:31:27
  TRACK 311 AUDIO
    TITLE "2:cjc090_0613"
    INDEX 01 05:32:58
  TRACK 312 AUDIO
    TITLE "0:"
    INDEX 01 05:33:59
  TRACK 313 AUDIO
    TITLE "3:cjc090_0614"
    INDEX 01 05:34:06
  TRACK 314 AUDIO
    TITLE "2:cjc090_0615"
    INDEX 01 05:35:25
  TRACK 315 AUDIO
    TITLE "0:"
    INDEX 01 05:37:12
  TRACK 316 AUDIO
    TITLE "3:cjc090_0616"
    INDEX 01 05:37:33
  TRACK 317 AUDIO
    TITLE "2:cjc090_0617"
    INDEX 01 05:38:48
  TRACK 318 AUDIO
    TITLE "0:"
    INDEX 01 05:39:60
  TRACK 319 AUDIO
    TITLE "3:cjc090_0618"
    INDEX 01 05:40:04
  TRACK 320 AUDIO
    TITLE "2:cjc090_0619"
    INDEX 01 05:41:33
  TRACK 321 AUDIO
    TITLE "0:"
    INDEX 01 05:43:12
  TRACK 322 AUDIO
    TITLE "3:cjc090_0620"
    INDEX 01 05:43:32
  TRACK 323 AUDIO
    TITLE "2:cjc090_0621"
    INDEX 01 05:46:18
  TRACK 324 AUDIO
    TITLE "0:"
    INDEX 01 05:48:57
  TRACK 325 AUDIO
    TITLE "3:cjc090_0622"
    INDEX 01 05:49:03
  TRACK 326 AUDIO
    TITLE "2:cjc090_0623"
    INDEX 01 05:50:28
  TRACK 327 AUDIO
    TITLE "0:"
    INDEX 01 05:51:71
  TRACK 328 AUDIO
    TITLE "3:cjc090_0624"
    INDEX 01 05:52:17
  TRACK 329 AUDIO
    TITLE "2:cjc090_0625"
    INDEX 01 05:53:52
  TRACK 330 AUDIO
    TITLE "0:"
    INDEX 01 05:57:38
  TRACK 331 AUDIO
    TITLE "3:cjc090_0626"
    INDEX 01 05:57:59
  TRACK 332 AUDIO
    TITLE "2:cjc090_0627"
    INDEX 01 05:58:69
  TRACK 333 AUDIO
    TITLE "0:"
    INDEX 01 06:00:52
  TRACK 334 AUDIO
    TITLE "3:cjc090_0628"
    INDEX 01 06:00:73
  TRACK 335 AUDIO
    TITLE "2:cjc090_0629"
    INDEX 01 06:02:04
  TRACK 336 AUDIO
    TITLE "0:"
    INDEX 01 06:03:13
  TRACK 337 AUDIO
    TITLE "3:cjc090_0630"
    INDEX 01 06:03:33
  TRACK 338 AUDIO
    TITLE "2:cjc090_0631"
    INDEX 01 06:04:58
  TRACK 339 AUDIO
    TITLE "0:"
    INDEX 01 06:05:53
  TRACK 340 AUDIO
    TITLE "3:cjc090_0632"
    INDEX 01 06:06:00
  TRACK 341 AUDIO
    TITLE "2:cjc090_0633"
    INDEX 01 06:07:03
  TRACK 342 AUDIO
    TITLE "0:"
    INDEX 01 06:08:14
  TRACK 343 AUDIO
    TITLE "3:cjc090_0634"
    INDEX 01 06:08:36
  TRACK 344 AUDIO
    TITLE "2:cjc090_0635"
    INDEX 01 06:09:57
  TRACK 345 AUDIO
    TITLE "0:"
    INDEX 01 06:10:48
  TRACK 346 AUDIO
    TITLE "3:cjc090_0636"
    INDEX 01 06:10:68
  TRACK 347 AUDIO
    TITLE "2:cjc090_0637"
    INDEX 01 06:12:43
  TRACK 348 AUDIO
    TITLE "0:"
    INDEX 01 06:13:49
  TRACK 349 AUDIO
    TITLE "3:cjc090_0638"
    INDEX 01 06:13:70
  TRACK 350 AUDIO
    TITLE "2:cjc090_0639"
    INDEX 01 06:15:32
  TRACK 351 AUDIO
    TITLE "0:"
    INDEX 01 06:16:69
  TRACK 352 AUDIO
    TITLE "3:cjc090_0640"
    INDEX 01 06:17:13
  TRACK 353 AUDIO
    TITLE "2:cjc090_0641"
    INDEX 01 06:18:36
  TRACK 354 AUDIO
    TITLE "0:"
    INDEX 01 06:19:39
  TRACK 355 AUDIO
    TITLE "3:cjc090_0642"
    INDEX 01 06:19:59
  TRACK 356 AUDIO
    TITLE "2:cjc090_0643"
    INDEX 01 06:20:72
  TRACK 357 AUDIO
    TITLE "0:"
    INDEX 01 06:22:50
  TRACK 358 AUDIO
    TITLE "3:cjc090_0644"
    INDEX 01 06:22:69
  TRACK 359 AUDIO
    TITLE "2:cjc090_0645"
    INDEX 01 06:24:09
  TRACK 360 AUDIO
    TITLE "0:"
    INDEX 01 06:25:54
  TRACK 361 AUDIO
    TITLE "3:cjc090_0646"
    INDEX 01 06:25:73
  TRACK 362 AUDIO
    TITLE "2:cjc090_0647"
    INDEX 01 06:27:15
  TRACK 363 AUDIO
    TITLE "0:"
    INDEX 01 06:28:31
  TRACK 364 AUDIO
    TITLE "3:cjc090_0648"
    INDEX 01 06:28:50
  TRACK 365 AUDIO
    TITLE "2:cjc090_0649"
    INDEX 01 06:29:56
  TRACK 366 AUDIO
    TITLE "0:"
    INDEX 01 06:30:63
  TRACK 367 AUDIO
    TITLE "3:cjc090_0650"
    INDEX 01 06:31:07
  TRACK 368 AUDIO
    TITLE "2:cjc090_0651"
    INDEX 01 06:32:26
  TRACK 369 AUDIO
    TITLE "0:"
    INDEX 01 06:34:29
  TRACK 370 AUDIO
    TITLE "3:cjc090_0652"
    INDEX 01 06:34:49
  TRACK 371 AUDIO
    TITLE "2:cjc090_0653"
    INDEX 01 06:35:64
  TRACK 372 AUDIO
    TITLE "0:"
    INDEX 01 06:37:71
  TRACK 373 AUDIO
    TITLE "3:cjc090_0654"
    INDEX 01 06:38:15
  TRACK 374 AUDIO
    TITLE "2:cjc090_0655"
    INDEX 01 06:39:30
  TRACK 375 AUDIO
    TITLE "0:"
    INDEX 01 06:40:40
  TRACK 376 AUDIO
    TITLE "3:cjc090_0656"
    INDEX 01 06:40:61
  TRACK 377 AUDIO
    TITLE "2:cjc090_0657"
    INDEX 01 06:41:65
  TRACK 378 AUDIO
    TITLE "0:"
    INDEX 01 06:43:50
  TRACK 379 AUDIO
    TITLE "3:cjc090_0658"
    INDEX 01 06:43:71
  TRACK 380 AUDIO
    TITLE "2:cjc090_0659"
    INDEX 01 06:45:23
  TRACK 381 AUDIO
    TITLE "0:"
    INDEX 01 06:47:22
  TRACK 382 AUDIO
    TITLE "3:cjc090_0660"
    INDEX 01 06:47:42
  TRACK 383 AUDIO
    TITLE "2:cjc090_0661"
    INDEX 01 06:49:03
  TRACK 384 AUDIO
    TITLE "0:"
    INDEX 01 06:50:69
  TRACK 385 AUDIO
    TITLE "3:cjc090_0662"
    INDEX 01 06:51:14
  TRACK 386 AUDIO
    TITLE "2:cjc090_0663"
    INDEX 01 06:52:43
  TRACK 387 AUDIO
    TITLE "0:"
    INDEX 01 06:53:42
  TRACK 388 AUDIO
    TITLE "3:cjc090_0664"
    INDEX 01 06:53:62
  TRACK 389 AUDIO
    TITLE "2:cjc090_0665"
    INDEX 01 06:54:71
  TRACK 390 AUDIO
    TITLE "0:"
    INDEX 01 06:55:73
  TRACK 391 AUDIO
    TITLE "3:cjc090_0666"
    INDEX 01 06:56:17
  TRACK 392 AUDIO
    TITLE "2:cjc090_0667"
    INDEX 01 06:57:42
  TRACK 393 AUDIO
    TITLE "0:"
    INDEX 01 06:58:57
  TRACK 394 AUDIO
    TITLE "3:cjc090_0668"
    INDEX 01 06:59:02
  TRACK 395 AUDIO
    TITLE "2:cjc090_0669"
    INDEX 01 07:00:07
  TRACK 396 AUDIO
    TITLE "0:"
    INDEX 01 07:01:07
  TRACK 397 AUDIO
    TITLE "3:cjc090_0670"
    INDEX 01 07:01:26
  TRACK 398 AUDIO
    TITLE "2:cjc090_0671"
    INDEX 01 07:02:47
  TRACK 399 AUDIO
    TITLE "0:"
    INDEX 01 07:06:08
  TRACK 400 AUDIO
    TITLE "3:cjc090_0672"
    INDEX 01 07:06:27
  TRACK 401 AUDIO
    TITLE "2:cjc090_0673"
    INDEX 01 07:07:40
  TRACK 402 AUDIO
    TITLE "0:"
    INDEX 01 07:11:19
  TRACK 403 AUDIO
    TITLE "3:cjc090_0674"
    INDEX 01 07:11:38
  TRACK 404 AUDIO
    TITLE "2:cjc090_0675"
    INDEX 01 07:12:61
  TRACK 405 AUDIO
    TITLE "0:"
    INDEX 01 07:14:41
  TRACK 406 AUDIO
    TITLE "3:cjc090_0676"
    INDEX 01 07:14:60
  TRACK 407 AUDIO
    TITLE "2:cjc090_0677"
    INDEX 01 07:16:02
  TRACK 408 AUDIO
    TITLE "0:"
    INDEX 01 07:17:08
  TRACK 409 AUDIO
    TITLE "3:cjc090_0678"
    INDEX 01 07:17:27
  TRACK 410 AUDIO
    TITLE "2:cjc090_0679"
    INDEX 01 07:18:29
  TRACK 411 AUDIO
    TITLE "0:"
    INDEX 01 07:19:36
  TRACK 412 AUDIO
    TITLE "3:cjc090_0680"
    INDEX 01 07:19:55
  TRACK 413 AUDIO
    TITLE "2:cjc090_0681"
    INDEX 01 07:20:57
  TRACK 414 AUDIO
    TITLE "0:"
    INDEX 01 07:21:52
  TRACK 415 AUDIO
    TITLE "3:cjc090_0682"
    INDEX 01 07:21:72
  TRACK 416 AUDIO
    TITLE "2:cjc090_0683"
    INDEX 01 07:23:16
  TRACK 417 AUDIO
    TITLE "0:"
    INDEX 01 07:25:46
  TRACK 418 AUDIO
    TITLE "3:cjc090_0684"
    INDEX 01 07:25:66
  TRACK 419 AUDIO
    TITLE "2:cjc090_0685"
    INDEX 01 07:26:71
  TRACK 420 AUDIO
    TITLE "0:"
    INDEX 01 07:29:62
  TRACK 421 AUDIO
    TITLE "3:cjc090_0686"
    INDEX 01 07:30:08
  TRACK 422 AUDIO
    TITLE "2:cjc090_0687"
    INDEX 01 07:31:33
  TRACK 423 AUDIO
    TITLE "0:"
    INDEX 01 07:33:09
  TRACK 424 AUDIO
    TITLE "3:cjc090_0688"
    INDEX 01 07:33:28
  TRACK 425 AUDIO
    TITLE "2:cjc090_0689"
    INDEX 01 07:34:45
  TRACK 426 AUDIO
    TITLE "0:"
    INDEX 01 07:35:51
  TRACK 427 AUDIO
    TITLE "3:cjc090_0690"
    INDEX 01 07:35:70
  TRACK 428 AUDIO
    TITLE "2:cjc090_0691"
    INDEX 01 07:37:10
  TRACK 429 AUDIO
    TITLE "0:"
    INDEX 01 07:38:59
  TRACK 430 AUDIO
    TITLE "3:cjc090_0692"
    INDEX 01 07:39:05
  TRACK 431 AUDIO
    TITLE "2:cjc090_0693"
    INDEX 01 07:40:14
  TRACK 432 AUDIO
    TITLE "0:"
    INDEX 01 07:42:31
  TRACK 433 AUDIO
    TITLE "3:cjc090_0694"
    INDEX 01 07:42:51
  TRACK 434 AUDIO
    TITLE "2:cjc090_0695"
    INDEX 01 07:43:74
  TRACK 435 AUDIO
    TITLE "0:"
    INDEX 01 07:45:27
  TRACK 436 AUDIO
    TITLE "3:cjc090_0696"
    INDEX 01 07:45:47
  TRACK 437 AUDIO
    TITLE "2:cjc090_0697"
    INDEX 01 07:46:70
  TRACK 438 AUDIO
    TITLE "0:"
    INDEX 01 07:49:70
  TRACK 439 AUDIO
    TITLE "3:cjc090_0698"
    INDEX 01 07:50:15
  TRACK 440 AUDIO
    TITLE "2:cjc090_0699"
    INDEX 01 07:51:26
  TRACK 441 AUDIO
    TITLE "0:"
    INDEX 01 07:53:68
  TRACK 442 AUDIO
    TITLE "3:cjc090_0700"
    INDEX 01 07:54:13
  TRACK 443 AUDIO
    TITLE "2:cjc090_0701"
    INDEX 01 07:55:20
  TRACK 444 AUDIO
    TITLE "0:"
    INDEX 01 07:56:33
  TRACK 445 AUDIO
    TITLE "3:cjc090_0702"
    INDEX 01 07:56:53
  TRACK 446 AUDIO
    TITLE "2:cjc090_0703"
    INDEX 01 07:57:68
  TRACK 447 AUDIO
    TITLE "0:"
    INDEX 01 07:59:00
  TRACK 448 AUDIO
    TITLE "3:cjc090_0704"
    INDEX 01 07:59:22
  TRACK 449 AUDIO
    TITLE "2:cjc090_0705"
    INDEX 01 08:00:50
  TRACK 450 AUDIO
    TITLE "0:"
    INDEX 01 08:01:64
  TRACK 451 AUDIO
    TITLE "3:cjc090_0706"
    INDEX 01 08:02:08
  TRACK 452 AUDIO
    TITLE "2:cjc090_0707"
    INDEX 01 08:03:27
  TRACK 453 AUDIO
    TITLE "0:"
    INDEX 01 08:04:33
  TRACK 454 AUDIO
    TITLE "3:cjc090_0708"
    INDEX 01 08:04:54
  TRACK 455 AUDIO
    TITLE "2:cjc090_0709"
    INDEX 01 08:06:06
  TRACK 456 AUDIO
    TITLE "0:"
    INDEX 01 08:09:28
  TRACK 457 AUDIO
    TITLE "3:cjc090_0710"
    INDEX 01 08:09:47
  TRACK 458 AUDIO
    TITLE "2:cjc090_0711"
    INDEX 01 08:10:63
  TRACK 459 AUDIO
    TITLE "0:"
    INDEX 01 08:12:11
  TRACK 460 AUDIO
    TITLE "3:cjc090_0712"
    INDEX 01 08:12:30
  TRACK 461 AUDIO
    TITLE "2:cjc090_0713"
    INDEX 01 08:14:66
  TRACK 462 AUDIO
    TITLE "0:"
    INDEX 01 08:17:21
  TRACK 463 AUDIO
    TITLE "3:cjc090_0714"
    INDEX 01 08:17:41
  TRACK 464 AUDIO
    TITLE "2:cjc090_0715"
    INDEX 01 08:18:58
  TRACK 465 AUDIO
    TITLE "0:"
    INDEX 01 08:20:45
  TRACK 466 AUDIO
    TITLE "3:cjc090_0716"
    INDEX 01 08:20:67
  TRACK 467 AUDIO
    TITLE "2:cjc090_0717"
    INDEX 01 08:21:58
  TRACK 468 AUDIO
    TITLE "0:"
    INDEX 01 08:23:30
  TRACK 469 AUDIO
    TITLE "3:cjc090_0718"
    INDEX 01 08:23:50
  TRACK 470 AUDIO
    TITLE "2:cjc090_0719"
    INDEX 01 08:24:63
  TRACK 471 AUDIO
    TITLE "0:"
    INDEX 01 08:27:06
  TRACK 472 AUDIO
    TITLE "3:cjc090_0720"
    INDEX 01 08:27:26
  TRACK 473 AUDIO
    TITLE "2:cjc090_0721"
    INDEX 01 08:28:43
  TRACK 474 AUDIO
    TITLE "0:"
    INDEX 01 08:32:01
  TRACK 475 AUDIO
    TITLE "3:cjc090_0722"
    INDEX 01 08:32:23
  TRACK 476 AUDIO
    TITLE "2:cjc090_0723"
    INDEX 01 08:33:42
  TRACK 477 AUDIO
    TITLE "0:"
    INDEX 01 08:35:33
  TRACK 478 AUDIO
    TITLE "3:cjc090_0724"
    INDEX 01 08:35:53
  TRACK 479 AUDIO
    TITLE "2:cjc090_0725"
    INDEX 01 08:36:68
  TRACK 480 AUDIO
    TITLE "0:"
    INDEX 01 08:38:08
  TRACK 481 AUDIO
    TITLE "3:cjc090_0726"
    INDEX 01 08:38:30
  TRACK 482 AUDIO
    TITLE "2:cjc090_0727"
    INDEX 01 08:39:45
  TRACK 483 AUDIO
    TITLE "0:"
    INDEX 01 08:40:62
  TRACK 484 AUDIO
    TITLE "3:cjc090_0728"
    INDEX 01 08:41:06
  TRACK 485 AUDIO
    TITLE "2:cjc090_0729"
    INDEX 01 08:42:18
  TRACK 486 AUDIO
    TITLE "0:"
    INDEX 01 08:44:28
  TRACK 487 AUDIO
    TITLE "3:cjc090_0730"
    INDEX 01 08:44:50
  TRACK 488 AUDIO
    TITLE "2:cjc090_0731"
    INDEX 01 08:45:67
  TRACK 489 AUDIO
    TITLE "0:"
    INDEX 01 08:47:72
  TRACK 490 AUDIO
    TITLE "3:cjc090_0732"
    INDEX 01 08:48:16
  TRACK 491 AUDIO
    TITLE "2:cjc090_0733"
    INDEX 01 08:49:37
  TRACK 492 AUDIO
    TITLE "0:"
    INDEX 01 08:51:24
  TRACK 493 AUDIO
    TITLE "3:cjc090_0734"
    INDEX 01 08:51:46
  TRACK 494 AUDIO
    TITLE "2:cjc090_0735"
    INDEX 01 08:52:67
  TRACK 495 AUDIO
    TITLE "0:"
    INDEX 01 08:54:72
  TRACK 496 AUDIO
    TITLE "3:cjc090_0736"
    INDEX 01 08:55:16
  TRACK 497 AUDIO
    TITLE "2:cjc090_0737"
    INDEX 01 08:57:68
  TRACK 498 AUDIO
    TITLE "0:"
    INDEX 01 09:02:12
  TRACK 499 AUDIO
    TITLE "3:cjc090_0738"
    INDEX 01 09:02:34
  TRACK 500 AUDIO
    TITLE "2:cjc090_0739"
    INDEX 01 09:03:51
  TRACK 501 AUDIO
    TITLE "0:"
    INDEX 01 09:04:70
  TRACK 502 AUDIO
    TITLE "3:cjc090_0740"
    INDEX 01 09:05:17
  TRACK 503 AUDIO
    TITLE "2:cjc090_0741"
    INDEX 01 09:06:30
  TRACK 504 AUDIO
    TITLE "0:"
    INDEX 01 09:08:11
  TRACK 505 AUDIO
    TITLE "3:cjc090_0742"
    INDEX 01 09:08:31
  TRACK 506 AUDIO
    TITLE "2:cjc090_0743"
    INDEX 01 09:09:42
  TRACK 507 AUDIO
    TITLE "0:"
    INDEX 01 09:13:24
  TRACK 508 AUDIO
    TITLE "3:cjc090_0744"
    INDEX 01 09:13:42
  TRACK 509 AUDIO
    TITLE "2:cjc090_0745"
    INDEX 01 09:14:57
  TRACK 510 AUDIO
    TITLE "0:"
    INDEX 01 09:16:24
  TRACK 511 AUDIO
    TITLE "3:cjc090_0746"
    INDEX 01 09:16:46
  TRACK 512 AUDIO
    TITLE "2:cjc090_0747"
    INDEX 01 09:17:65
  TRACK 513 AUDIO
    TITLE "0:"
    INDEX 01 09:19:05
  TRACK 514 AUDIO
    TITLE "3:cjc090_0748"
    INDEX 01 09:19:25
  TRACK 515 AUDIO
    TITLE "2:cjc090_0749"
    INDEX 01 09:20:55
  TRACK 516 AUDIO
    TITLE "0:"
    INDEX 01 09:22:41
  TRACK 517 AUDIO
    TITLE "3:cjc090_0750"
    INDEX 01 09:22:62
  TRACK 518 AUDIO
    TITLE "2:cjc090_0751"
    INDEX 01 09:24:06
  TRACK 519 AUDIO
    TITLE "0:"
    INDEX 01 09:25:27
  TRACK 520 AUDIO
    TITLE "3:cjc090_0752"
    INDEX 01 09:25:47
  TRACK 521 AUDIO
    TITLE "2:cjc090_0753"
    INDEX 01 09:26:56
  TRACK 522 AUDIO
    TITLE "0:"
    INDEX 01 09:28:02
  TRACK 523 AUDIO
    TITLE "3:cjc090_0754"
    INDEX 01 09:28:22
  TRACK 524 AUDIO
    TITLE "2:cjc090_0755"
    INDEX 01 09:29:21
  TRACK 525 AUDIO
    TITLE "0:"
    INDEX 01 09:30:66
  TRACK 526 AUDIO
    TITLE "3:cjc090_0756"
    INDEX 01 09:31:10
  TRACK 527 AUDIO
    TITLE "2:cjc090_0757"
    INDEX 01 09:32:31
  TRACK 528 AUDIO
    TITLE "0:"
    INDEX 01 09:34:46
  TRACK 529 AUDIO
    TITLE "3:cjc090_0758"
    INDEX 01 09:34:65
  TRACK 530 AUDIO
    TITLE "2:cjc090_0759"
    INDEX 01 09:36:00
  TRACK 531 AUDIO
    TITLE "0:"
    INDEX 01 09:37:60
  TRACK 532 AUDIO
    TITLE "3:cjc090_0760"
    INDEX 01 09:38:04
  TRACK 533 AUDIO
    TITLE "2:cjc090_0761"
    INDEX 01 09:39:02
  TRACK 534 AUDIO
    TITLE "0:"
    INDEX 01 09:40:74
  TRACK 535 AUDIO
    TITLE "3:cjc090_0762"
    INDEX 01 09:41:20
  TRACK 536 AUDIO
    TITLE "2:cjc090_0763"
    INDEX 01 09:42:49
  TRACK 537 AUDIO
    TITLE "0:"
    INDEX 01 09:44:66
  TRACK 538 AUDIO
    TITLE "3:cjc090_0764"
    INDEX 01 09:45:12
  TRACK 539 AUDIO
    TITLE "2:cjc090_0765"
    INDEX 01 09:46:21
  TRACK 540 AUDIO
    TITLE "0:"
    INDEX 01 09:47:37
  TRACK 541 AUDIO
    TITLE "3:cjc090_0766"
    INDEX 01 09:47:56
  TRACK 542 AUDIO
    TITLE "2:cjc090_0767"
    INDEX 01 09:48:71
  TRACK 543 AUDIO
    TITLE "0:"
    INDEX 01 09:49:63
  TRACK 544 AUDIO
    TITLE "3:cjc090_0768"
    INDEX 01 09:50:07
  TRACK 545 AUDIO
    TITLE "2:cjc090_0769"
    INDEX 01 09:51:15
  TRACK 546 AUDIO
    TITLE "0:"
    INDEX 01 09:52:20
  TRACK 547 AUDIO
    TITLE "3:cjc090_0770"
    INDEX 01 09:52:40
  TRACK 548 AUDIO
    TITLE "2:cjc090_0771"
    INDEX 01 09:53:47
  TRACK 549 AUDIO
    TITLE "0:"
    INDEX 01 09:55:58
  TRACK 550 AUDIO
    TITLE "3:cjc090_0772"
    INDEX 01 09:56:04
  TRACK 551 AUDIO
    TITLE "2:cjc090_0773"
    INDEX 01 09:57:27
  TRACK 552 AUDIO
    TITLE "0:"
    INDEX 01 09:59:42
  TRACK 553 AUDIO
    TITLE "3:cjc090_0774"
    INDEX 01 09:59:63
  TRACK 554 AUDIO
    TITLE "2:cjc090_0775"
    INDEX 01 10:01:05
  TRACK 555 AUDIO
    TITLE "0:"
    INDEX 01 10:02:20
  TRACK 556 AUDIO
    TITLE "3:cjc090_0776"
    INDEX 01 10:02:42
  TRACK 557 AUDIO
    TITLE "2:cjc090_0777"
    INDEX 01 10:03:41
  TRACK 558 AUDIO
    TITLE "0:"
    INDEX 01 10:04:59
  TRACK 559 AUDIO
    TITLE "3:cjc090_0778"
    INDEX 01 10:05:03
  TRACK 560 AUDIO
    TITLE "2:cjc090_0779"
    INDEX 01 10:06:14
  TRACK 561 AUDIO
    TITLE "0:"
    INDEX 01 10:07:63
  TRACK 562 AUDIO
    TITLE "3:cjc090_0780"
    INDEX 01 10:08:09
  TRACK 563 AUDIO
    TITLE "2:cjc090_0781"
    INDEX 01 10:09:30
  TRACK 564 AUDIO
    TITLE "0:"
    INDEX 01 10:10:38
  TRACK 565 AUDIO
    TITLE "3:cjc090_0782"
    INDEX 01 10:10:59
  TRACK 566 AUDIO
    TITLE "2:cjc090_0783"
    INDEX 01 10:11:66
  TRACK 567 AUDIO
    TITLE "0:"
    INDEX 01 10:13:05
  TRACK 568 AUDIO
    TITLE "3:cjc090_0784"
    INDEX 01 10:13:26
  TRACK 569 AUDIO
    TITLE "2:cjc090_0785"
    INDEX 01 10:14:49
  TRACK 570 AUDIO
    TITLE "0:"
    INDEX 01 10:16:03
  TRACK 571 AUDIO
    TITLE "3:cjc090_0786"
    INDEX 01 10:16:23
  TRACK 572 AUDIO
    TITLE "2:cjc090_0787"
    INDEX 01 10:17:38
  TRACK 573 AUDIO
    TITLE "0:"
    INDEX 01 10:19:37
  TRACK 574 AUDIO
    TITLE "3:cjc090_0788"
    INDEX 01 10:19:58
  TRACK 575 AUDIO
    TITLE "2:cjc090_0789"
    INDEX 01 10:20:59
  TRACK 576 AUDIO
    TITLE "0:"
    INDEX 01 10:21:59
  TRACK 577 AUDIO
    TITLE "3:cjc090_0790"
    INDEX 01 10:22:06
  TRACK 578 AUDIO
    TITLE "2:cjc090_0791"
    INDEX 01 10:23:17
  TRACK 579 AUDIO
    TITLE "0:"
    INDEX 01 10:26:33
  TRACK 580 AUDIO
    TITLE "3:cjc090_0792"
    INDEX 01 10:26:54
  TRACK 581 AUDIO
    TITLE "2:cjc090_0793"
    INDEX 01 10:27:71
  TRACK 582 AUDIO
    TITLE "0:"
    INDEX 01 10:29:60
  TRACK 583 AUDIO
    TITLE "3:cjc090_0794"
    INDEX 01 10:30:05
  TRACK 584 AUDIO
    TITLE "2:cjc090_0795"
    INDEX 01 10:31:12
  TRACK 585 AUDIO
    TITLE "0:"
    INDEX 01 10:32:22
  TRACK 586 AUDIO
    TITLE "3:cjc090_0796"
    INDEX 01 10:32:43
  TRACK 587 AUDIO
    TITLE "2:cjc090_0797"
    INDEX 01 10:33:50
  TRACK 588 AUDIO
    TITLE "0:"
    INDEX 01 10:35:26
  TRACK 589 AUDIO
    TITLE "3:cjc090_0798"
    INDEX 01 10:35:47
  TRACK 590 AUDIO
    TITLE "2:cjc090_0799"
    INDEX 01 10:37:01
  TRACK 591 AUDIO
    TITLE "0:"
    INDEX 01 10:38:20
  TRACK 592 AUDIO
    TITLE "3:cjc090_0800"
    INDEX 01 10:38:40
  TRACK 593 AUDIO
    TITLE "2:cjc090_0801"
    INDEX 01 10:39:45
  TRACK 594 AUDIO
    TITLE "0:"
    INDEX 01 10:40:47
  TRACK 595 AUDIO
    TITLE "3:cjc090_0802"
    INDEX 01 10:40:68
  TRACK 596 AUDIO
    TITLE "2:cjc090_0803"
    INDEX 01 10:42:08
  TRACK 597 AUDIO
    TITLE "0:"
    INDEX 01 10:44:23
  TRACK 598 AUDIO
    TITLE "3:cjc090_0804"
    INDEX 01 10:44:42
  TRACK 599 AUDIO
    TITLE "2:cjc090_0805"
    INDEX 01 10:45:54
  TRACK 600 AUDIO
    TITLE "0:"
    INDEX 01 10:47:58
  TRACK 601 AUDIO
    TITLE "3:cjc090_0806"
    INDEX 01 10:48:03
  TRACK 602 AUDIO
    TITLE "2:cjc090_0807"
    INDEX 01 10:49:24
  TRACK 603 AUDIO
    TITLE "0:"
    INDEX 01 10:50:19
  TRACK 604 AUDIO
    TITLE "3:cjc090_0808"
    INDEX 01 10:50:41
  TRACK 605 AUDIO
    TITLE "2:cjc090_0809"
    INDEX 01 10:51:46
  TRACK 606 AUDIO
    TITLE "0:"
    INDEX 01 10:53:33
  TRACK 607 AUDIO
    TITLE "3:cjc090_0810"
    INDEX 01 10:53:53
  TRACK 608 AUDIO
    TITLE "2:cjc090_0811"
    INDEX 01 10:54:68
  TRACK 609 AUDIO
    TITLE "0:"
    INDEX 01 10:56:16
